<svg width="26" height="26" viewBox="0 0 26 26" fill="none" xmlns="http://www.w3.org/2000/svg">
<path fill-rule="evenodd" clip-rule="evenodd" d="M23.627 15.87L16 23.5L12.25 24.25L13 20.5L20.631 12.87C21.0274 12.4729 21.5654 12.2498 22.1265 12.2498C22.6876 12.2498 23.2256 12.4729 23.622 12.87L23.631 12.878C24.4559 13.7054 24.4541 15.0448 23.627 15.87Z" stroke="#303030" stroke-width="2" stroke-linecap="round" stroke-linejoin="round"/>
<path d="M9.24609 21.25H3.24609C2.41767 21.25 1.74609 20.5784 1.74609 19.75V3.25C1.74609 2.42157 2.41767 1.75 3.24609 1.75H18.2461C19.0745 1.75 19.7461 2.42157 19.7461 3.25V10" stroke="#303030" stroke-width="2" stroke-linecap="round" stroke-linejoin="round"/>
<path d="M9.24609 6.25H15.2461" stroke="#303030" stroke-width="2" stroke-linecap="round" stroke-linejoin="round"/>
<path d="M6.24609 10.75H15.2461" stroke="#303030" stroke-width="2" stroke-linecap="round" stroke-linejoin="round"/>
<path d="M6.24609 15.25H13.7461" stroke="#303030" stroke-width="2" stroke-linecap="round" stroke-linejoin="round"/>
</svg>
